<svg width="512" height="512" viewBox="0 0 512 512" fill="none" xmlns="http://www.w3.org/2000/svg">
  <rect width="512" height="512" rx="112" fill="url(#paint0_linear)" />
  <path
    opacity="0.28"
    d="M0 342C72 270 154 250 246 283C343 318 421 299 512 210V512H0V342Z"
    fill="url(#paint1_linear)"
  />
  <path
    opacity="0.22"
    d="M0 0H512V188C421 250 332 260 238 222C140 181 64 205 0 274V0Z"
    fill="white"
  />
  <path
    d="M340 80C358.778 80 374 95.2223 374 114V148H408C426.778 148 442 163.222 442 182C442 200.778 426.778 216 408 216H374V250C374 268.778 358.778 284 340 284C321.222 284 306 268.778 306 250V216H230C198.52 216 177.5 227.5 170.5 247C163.2 267.3 179.4 281.1 212.5 287.5L275 299.5C349.5 314 390 352.5 390 411C390 474 333.5 504 260 504C201.5 504 154.5 488 112 456C96.9 444.6 93.8 423.2 105.2 408.1C116.6 393 138 389.9 153.1 401.3C184.5 424.9 219.4 436 260 436C299.5 436 321 426.2 321 408.5C321 393.2 305.5 383.5 262 375L199.5 363C128.5 349.2 92 310.6 92 254C92 193 147.4 148 230 148H306V114C306 95.2223 321.222 80 340 80Z"
    fill="white"
  />
  <defs>
    <linearGradient id="paint0_linear" x1="56" y1="38" x2="467" y2="474" gradientUnits="userSpaceOnUse">
      <stop stop-color="#A855F7" />
      <stop offset="0.48" stop-color="#2563EB" />
      <stop offset="1" stop-color="#06B6D4" />
    </linearGradient>
    <linearGradient id="paint1_linear" x1="0" y1="256" x2="512" y2="512" gradientUnits="userSpaceOnUse">
      <stop stop-color="#4C1D95" />
      <stop offset="1" stop-color="#0284C7" />
    </linearGradient>
  </defs>
</svg>
